<svg width="215" height="285" viewBox="0 0 215 285" fill="none" xmlns="http://www.w3.org/2000/svg">
<path d="M0 122.207L0.159592 28.0794C0.159592 28.0794 -0.304676 25.229 4.51211 24.0932C9.3289 22.9574 106.376 0.118229 106.376 0.118229C107.185 -0.0394096 108.018 -0.0394096 108.828 0.118229L212.359 24.5201C212.359 24.5201 215 25.5835 215 28.0794V257.028C214.964 257.974 214.601 258.877 213.971 259.585C213.341 260.292 212.484 260.759 211.547 260.906C208.094 261.629 109.386 284.57 109.386 284.57C108.3 284.818 107.172 284.818 106.085 284.57C104.359 284.158 4.52662 261.043 4.52662 261.043C4.52662 261.043 0.174101 260.761 0.174101 257.166C0.174101 253.57 0 122.207 0 122.207Z" fill="#EF3340"/>
<path d="M215 257.301V28.5847C215 26.0914 212.359 25.029 212.359 25.029L131.555 6L0 137.042C0.0435252 171.241 0.145084 254.584 0.145084 257.438C0.145084 261.052 4.53388 261.312 4.53388 261.312C4.53388 261.312 104.344 284.439 106.093 284.814C107.179 285.062 108.307 285.062 109.393 284.814C109.393 284.814 208.101 261.861 211.554 261.175C212.49 261.026 213.345 260.559 213.973 259.853C214.602 259.146 214.965 258.244 215 257.301Z" fill="#E5BF03"/>
<path d="M215 257.074V35.5945L0 249.505C0 253.954 0 256.727 0 257.211C0 260.822 4.3919 261.082 4.3919 261.082C4.3919 261.082 104.273 284.195 106.023 284.57C107.11 284.817 108.239 284.817 109.326 284.57C109.326 284.57 208.104 261.631 211.559 260.945C212.494 260.796 213.348 260.328 213.976 259.622C214.603 258.916 214.965 258.016 215 257.074Z" fill="#00AB84"/>
<path d="M215 257.139V148.659L84.3136 279.339L106.808 284.571C107.887 284.817 109.007 284.817 110.086 284.571C110.086 284.571 208.126 261.686 211.556 261.001C212.489 260.858 213.343 260.394 213.972 259.689C214.6 258.984 214.964 258.083 215 257.139Z" fill="#0085CA"/>
<path d="M137.362 165.118C137.362 159.188 131.026 158.907 131.026 158.907C131.026 158.907 90.0479 159.044 83.9984 159.044C77.9489 159.044 77.6619 165.255 77.6619 165.255V232.481C77.6619 237.307 72.8708 238.692 71.3253 238.692C70.3418 238.666 69.3775 238.42 68.5066 237.971C68.5066 237.971 51.4399 227.785 47.9442 225.851C44.706 223.918 44.2644 220.167 44.2644 220.167V56.4621C44.2644 56.4621 44.5441 50.251 50.6009 50.251H71.3106C71.3106 50.251 77.6472 50.5251 77.6472 56.4621V120.096C77.6472 120.096 78.0666 126.307 83.9837 126.307H131.011C131.011 126.307 137.348 126.026 137.348 120.096V56.4621C137.348 56.4621 137.914 50.5251 143.684 50.5251C149.454 50.5251 164.386 50.6622 164.386 50.6622C164.386 50.6622 170.723 50.9435 170.723 56.8733V220.217C170.723 220.217 171.142 222.973 167.043 225.736C162.944 228.499 146.341 238 146.341 238C145.497 238.363 144.584 238.55 143.662 238.548C142.116 238.548 137.325 237.17 137.325 232.337L137.362 165.118Z" fill="white"/>
</svg>
