<?xml version="1.0" standalone="no"?>
<!DOCTYPE svg PUBLIC "-//W3C//DTD SVG 20010904//EN"
 "http://www.w3.org/TR/2001/REC-SVG-20010904/DTD/svg10.dtd">
<svg version="1.0" xmlns="http://www.w3.org/2000/svg"
 width="225.000000pt" height="225.000000pt" viewBox="0 0 225.000000 225.000000"
 preserveAspectRatio="xMidYMid meet">

<g transform="translate(0.000000,225.000000) scale(0.100000,-0.100000)"
fill="#000000" stroke="none">
<path d="M0 1543 l0 -708 58 60 c32 33 172 175 310 316 l252 256 0 156 c0 185
1 187 110 187 79 0 110 -15 124 -58 l12 -34 258 266 258 266 -691 0 -691 0 0
-707z"/>
<path d="M1933 1010 l-313 -319 0 -130 c0 -71 -4 -140 -9 -154 -7 -18 -30 -31
-95 -56 -47 -18 -96 -31 -108 -29 -21 3 -23 9 -26 63 l-4 60 -213 -220 -213
-220 646 -3 c355 -1 647 -1 649 1 2 2 2 301 1 664 l-3 661 -312 -318z"/>
</g>
</svg>
