<svg width="156" height="52" viewBox="0 0 156 52" fill="none" xmlns="http://www.w3.org/2000/svg">
<path d="M0 22.3165L0.0291436 5.12766C0.0291436 5.12766 -0.0556378 4.60714 0.823969 4.39973C1.70358 4.19232 19.4255 0.0215901 19.4255 0.0215901C19.5734 -0.00719669 19.7254 -0.00719669 19.8733 0.0215901L38.7795 4.47768C38.7795 4.47768 39.2617 4.67188 39.2617 5.12766V46.9366C39.2552 47.1093 39.1888 47.2743 39.0738 47.4035C38.9588 47.5326 38.8023 47.6179 38.6312 47.6448C38.0006 47.7769 19.9753 51.9661 19.9753 51.9661C19.7769 52.0113 19.5709 52.0113 19.3726 51.9661C19.0573 51.8908 0.826619 47.6699 0.826619 47.6699C0.826619 47.6699 0.031793 47.6183 0.031793 46.9618C0.031793 46.3052 0 22.3165 0 22.3165Z" fill="#EF3340"/>
<path d="M39.2617 46.9513V5.26355C39.2617 4.80909 38.7795 4.61545 38.7795 4.61545L24.0236 1.14706L0 25.0319C0.00794826 31.2652 0.0264942 46.456 0.0264942 46.9764C0.0264942 47.635 0.827943 47.6824 0.827943 47.6824C0.827943 47.6824 19.0546 51.8977 19.3739 51.9662C19.5722 52.0113 19.7783 52.0113 19.9766 51.9662C19.9766 51.9662 38.0019 47.7825 38.6325 47.6574C38.8034 47.6304 38.9595 47.5452 39.0743 47.4164C39.189 47.2877 39.2553 47.1233 39.2617 46.9513V46.9513Z" fill="#E5BF03"/>
<path d="M39.2617 46.945V6.5L0 45.5627C0 46.3752 0 46.8817 0 46.97C0 47.6295 0.802018 47.677 0.802018 47.677C0.802018 47.677 19.0416 51.8976 19.3611 51.9661C19.5596 52.0113 19.7658 52.0113 19.9643 51.9661C19.9643 51.9661 38.0024 47.7772 38.6334 47.6519C38.8041 47.6246 38.9601 47.5392 39.0747 47.4103C39.1892 47.2814 39.2554 47.1169 39.2617 46.945V46.945Z" fill="#00AB84"/>
<path d="M39.2618 46.9569V27.1471L15.3968 51.0109L19.5045 51.9662C19.7016 52.0113 19.9062 52.0113 20.1032 51.9662C20.1032 51.9662 38.0065 47.7872 38.6328 47.6621C38.8033 47.636 38.9593 47.5513 39.0741 47.4226C39.1888 47.2939 39.2552 47.1292 39.2618 46.9569V46.9569Z" fill="#0085CA"/>
<path d="M25.0842 30.1526C25.0842 29.0698 23.927 29.0184 23.927 29.0184C23.927 29.0184 16.444 29.0434 15.3392 29.0434C14.2345 29.0434 14.1821 30.1776 14.1821 30.1776V42.454C14.1821 43.3353 13.3072 43.5882 13.025 43.5882C12.8454 43.5835 12.6693 43.5385 12.5103 43.4565C12.5103 43.4565 9.39366 41.5964 8.75528 41.2434C8.16395 40.8903 8.08331 40.2053 8.08331 40.2053V10.3107C8.08331 10.3107 8.13438 9.17648 9.24045 9.17648H13.0223C13.0223 9.17648 14.1794 9.22654 14.1794 10.3107V21.931C14.1794 21.931 14.256 23.0653 15.3366 23.0653H23.9243C23.9243 23.0653 25.0815 23.0139 25.0815 21.931V10.3107C25.0815 10.3107 25.185 9.22654 26.2386 9.22654C27.2923 9.22654 30.0191 9.25157 30.0191 9.25157C30.0191 9.25157 31.1762 9.30295 31.1762 10.3858V40.2145C31.1762 40.2145 31.2529 40.7177 30.5043 41.2223C29.7557 41.7268 26.7238 43.4618 26.7238 43.4618C26.5696 43.5282 26.403 43.5623 26.2346 43.5619C25.9523 43.5619 25.0774 43.3103 25.0774 42.4277L25.0842 30.1526Z" fill="white"/>
<path d="M55.781 32.598C55.1357 32.598 54.637 32.422 54.285 32.07C53.933 31.718 53.757 31.2047 53.757 30.53V18.76C53.757 18.0853 53.933 17.572 54.285 17.22C54.637 16.868 55.1357 16.692 55.781 16.692C56.4263 16.692 56.925 16.868 57.277 17.22C57.629 17.572 57.805 18.0853 57.805 18.76V22.874H64.207V18.76C64.207 18.0853 64.383 17.572 64.735 17.22C65.087 16.868 65.5857 16.692 66.231 16.692C66.8763 16.692 67.3677 16.868 67.705 17.22C68.057 17.572 68.233 18.0853 68.233 18.76V30.53C68.233 31.2047 68.057 31.718 67.705 32.07C67.3677 32.422 66.8763 32.598 66.231 32.598C65.571 32.598 65.065 32.422 64.713 32.07C64.3757 31.718 64.207 31.2047 64.207 30.53V26.196H57.805V30.53C57.805 31.2047 57.629 31.718 57.277 32.07C56.9397 32.422 56.441 32.598 55.781 32.598ZM71.7779 32.598C71.0886 32.598 70.5826 32.3633 70.2599 31.894C69.9373 31.4247 69.9373 30.838 70.2599 30.134L75.7379 18.342C76.0019 17.77 76.3246 17.352 76.7059 17.088C77.0873 16.824 77.5346 16.692 78.0479 16.692C78.5466 16.692 78.9866 16.824 79.3679 17.088C79.7493 17.352 80.0719 17.77 80.3359 18.342L85.8139 30.134C86.1513 30.8527 86.1659 31.4467 85.8579 31.916C85.5499 32.3707 85.0659 32.598 84.4059 32.598C83.8193 32.598 83.3646 32.466 83.0419 32.202C82.7339 31.938 82.4553 31.5127 82.2059 30.926L81.5019 29.254H74.5719L73.8679 30.926C73.6039 31.5127 73.3326 31.938 73.0539 32.202C72.7753 32.466 72.3499 32.598 71.7779 32.598ZM78.0039 21.114L75.8919 26.152H80.1599L78.0479 21.114H78.0039ZM95.2765 32.642C93.5605 32.642 92.0865 32.312 90.8545 31.652C89.6225 30.992 88.6765 30.0607 88.0165 28.858C87.3712 27.6553 87.0485 26.2473 87.0485 24.634C87.0485 23.0207 87.3712 21.62 88.0165 20.432C88.6765 19.2293 89.6225 18.298 90.8545 17.638C92.0865 16.978 93.5605 16.648 95.2765 16.648C95.9512 16.648 96.6478 16.7287 97.3665 16.89C98.0998 17.0367 98.7452 17.264 99.3025 17.572C99.7132 17.792 99.9992 18.0707 100.16 18.408C100.322 18.7453 100.381 19.09 100.336 19.442C100.292 19.794 100.16 20.1093 99.9405 20.388C99.7352 20.6667 99.4712 20.8573 99.1485 20.96C98.8258 21.048 98.4738 20.9967 98.0925 20.806C97.2272 20.3807 96.3398 20.168 95.4305 20.168C94.0665 20.168 93.0398 20.5567 92.3505 21.334C91.6612 22.0967 91.3165 23.1967 91.3165 24.634C91.3165 26.086 91.6612 27.2007 92.3505 27.978C93.0398 28.7407 94.0665 29.122 95.4305 29.122C95.8118 29.122 96.2225 29.078 96.6625 28.99C97.1025 28.8873 97.5352 28.7333 97.9605 28.528C98.4005 28.3373 98.7892 28.286 99.1265 28.374C99.4785 28.462 99.7645 28.638 99.9845 28.902C100.204 29.166 100.336 29.474 100.38 29.826C100.439 30.1633 100.395 30.5007 100.248 30.838C100.102 31.1753 99.8305 31.4467 99.4345 31.652C98.9212 31.96 98.2832 32.202 97.5205 32.378C96.7725 32.554 96.0245 32.642 95.2765 32.642ZM104.615 32.598C103.97 32.598 103.471 32.422 103.119 32.07C102.767 31.718 102.591 31.212 102.591 30.552V18.738C102.591 18.078 102.767 17.572 103.119 17.22C103.471 16.868 103.97 16.692 104.615 16.692C105.26 16.692 105.759 16.868 106.111 17.22C106.463 17.572 106.639 18.078 106.639 18.738V23.534H106.683L112.029 17.638C112.308 17.3447 112.601 17.1173 112.909 16.956C113.232 16.78 113.591 16.692 113.987 16.692C114.588 16.692 115.028 16.8533 115.307 17.176C115.586 17.484 115.71 17.8507 115.681 18.276C115.652 18.7013 115.483 19.0827 115.175 19.42L110.599 24.26L115.439 29.738C115.82 30.1633 116.011 30.596 116.011 31.036C116.011 31.476 115.857 31.85 115.549 32.158C115.241 32.4513 114.801 32.598 114.229 32.598C113.73 32.598 113.327 32.5027 113.019 32.312C112.711 32.1067 112.388 31.806 112.051 31.41L106.683 25.404H106.639V30.552C106.639 31.212 106.463 31.718 106.111 32.07C105.774 32.422 105.275 32.598 104.615 32.598ZM124.902 32.642C122.644 32.642 120.913 32.07 119.71 30.926C118.522 29.782 117.928 28.0733 117.928 25.8V18.738C117.928 18.078 118.104 17.572 118.456 17.22C118.808 16.868 119.307 16.692 119.952 16.692C120.598 16.692 121.096 16.868 121.448 17.22C121.8 17.572 121.976 18.078 121.976 18.738V25.844C121.976 26.9733 122.226 27.824 122.724 28.396C123.223 28.968 123.949 29.254 124.902 29.254C125.841 29.254 126.56 28.968 127.058 28.396C127.557 27.824 127.806 26.9733 127.806 25.844V18.738C127.806 18.078 127.975 17.572 128.312 17.22C128.664 16.868 129.163 16.692 129.808 16.692C130.454 16.692 130.945 16.868 131.282 17.22C131.62 17.572 131.788 18.078 131.788 18.738V25.8C131.788 28.0733 131.202 29.782 130.028 30.926C128.87 32.07 127.161 32.642 124.902 32.642ZM136.365 32.598C135.779 32.598 135.324 32.4367 135.001 32.114C134.693 31.7913 134.539 31.3367 134.539 30.75V18.54C134.539 17.9387 134.708 17.484 135.045 17.176C135.383 16.8533 135.859 16.692 136.475 16.692C136.974 16.692 137.377 16.7947 137.685 17C137.993 17.1907 138.272 17.5133 138.521 17.968L142.855 25.778L147.189 17.968C147.453 17.5133 147.732 17.1907 148.025 17C148.333 16.7947 148.744 16.692 149.257 16.692C149.829 16.692 150.277 16.8533 150.599 17.176C150.922 17.484 151.083 17.9387 151.083 18.54V30.75C151.083 31.3367 150.929 31.7913 150.621 32.114C150.313 32.4367 149.859 32.598 149.257 32.598C148.671 32.598 148.216 32.4367 147.893 32.114C147.585 31.7913 147.431 31.3367 147.431 30.75V23.974L144.351 29.342C144.146 29.6647 143.926 29.9067 143.691 30.068C143.471 30.2293 143.171 30.31 142.789 30.31C142.423 30.31 142.122 30.2293 141.887 30.068C141.653 29.9067 141.44 29.6647 141.249 29.342L138.191 24.062V30.75C138.191 31.3367 138.037 31.7913 137.729 32.114C137.421 32.4367 136.967 32.598 136.365 32.598Z" fill="white"/>
</svg>
